# xmcd CD database file
#
# Track frame offsets:
#	150
#	14235
#	24877
#	42555
#	56486
#	67135
#	79851
#	95192
#	113744
#	123520
#	139518
#	154573
#	170955
#
# Disc length: 2555 seconds
#
# Revision: 0
# Processed by: cddbd v1.5.2PL0 Copyright (c) Steve Scherf et al.
# Submitted via: CDex 1.81
#
DISCID=b809f90d
DTITLE=Christian K. Schaeffer - Forever To Remember
DYEAR=2017
DGENRE=Jazz
TTITLE0=Come Fly With Me
TTITLE1=Have You Met Miss Jones
TTITLE2=I Get A Kick Out Of You
TTITLE3=My Funny Valentine
TTITLE4=Fly Me To The Moon
TTITLE5=The Lady Is A Tramp
TTITLE6=New York, New York
TTITLE7=Forever To Remember
TTITLE8=The Shadow Of Your Smile
TTITLE9=I've Got You Under My Skin
TTITLE10=That's Life
TTITLE11=Moonriver
TTITLE12=My Way
EXTD=YEAR: 2017
EXTT0=
EXTT1=
EXTT2=
EXTT3=
EXTT4=
EXTT5=
EXTT6=
EXTT7=
EXTT8=
EXTT9=
EXTT10=
EXTT11=
EXTT12=
PLAYORDER=
